<svg height="23" viewBox="0 0 64 23" width="64" xmlns="http://www.w3.org/2000/svg" xmlns:xlink="http://www.w3.org/1999/xlink"><mask id="a" fill="#fff"><path d="m.253 22.395h14.612v-22.122h-14.612z" fill="#fff" fill-rule="evenodd"/></mask><g fill="none" fill-rule="evenodd" transform="translate(-160 -29)"><rect height="380" rx="4" stroke="#888" width="402" x=".5" y=".5"/><g fill="#00b900"><path d="m182.107 30h-3.214a.897.897 0 0 0 -.893.902v20.197c0 .497.4.901.893.901h3.214a.897.897 0 0 0 .893-.901v-20.197c0-.498-.4-.902-.893-.902m22.953 0h-3.383c-.52 0-.94.404-.94.902v11.998l-9.632-12.5a.888.888 0 0 0 -.074-.09l-.006-.007a.836.836 0 0 0 -.056-.055l-.017-.015a1.377 1.377 0 0 0 -.075-.059.756.756 0 0 0 -.048-.032l-.029-.016a.9.9 0 0 0 -.134-.063l-.03-.01a1.063 1.063 0 0 0 -.232-.049.615.615 0 0 0 -.05-.002l-.03-.002h-3.384c-.52 0-.94.404-.94.902v20.197c0 .497.42.901.94.901h3.384c.518 0 .94-.404.94-.901v-11.995l9.643 12.515c.067.09.148.164.238.223l.01.007a1.125 1.125 0 0 0 .086.047l.044.022.045.018a1.626 1.626 0 0 0 .093.03l.013.003c.077.02.158.031.24.031h3.384c.52 0 .94-.404.94-.901v-20.197c0-.498-.42-.902-.94-.902m-30.974 16.942h-8.958v-16.04a.909.909 0 0 0 -.915-.902h-3.297a.909.909 0 0 0 -.916.902v20.196c0 .242.098.462.256.624l.012.013.014.013a.917.917 0 0 0 .633.252h13.171a.909.909 0 0 0 .914-.903v-3.252a.909.909 0 0 0 -.914-.903"/><path d="m13.975 5.358a.9.9 0 0 0 .89-.908v-3.27a.9.9 0 0 0 -.89-.907h-12.832a.877.877 0 0 0 -.619.255l-.01.01-.015.016a.91.91 0 0 0 -.246.625v20.309a.91.91 0 0 0 .248.627l.013.014.013.012c.16.157.377.254.616.254h12.832a.9.9 0 0 0 .89-.909v-3.269a.9.9 0 0 0 -.89-.908h-8.727v-3.433h8.727a.9.9 0 0 0 .89-.908v-3.27a.899.899 0 0 0 -.89-.907h-8.727v-3.433z" mask="url(#a)" transform="translate(209 29)"/></g></g></svg>